<svg width="979" height="167" viewBox="0 0 979 167" fill="none" xmlns="http://www.w3.org/2000/svg">
<path d="M42.2457 99.8456C42.2457 105.237 42.9915 109.805 44.4851 113.556C45.9807 117.309 47.9508 120.364 50.3933 122.734C52.8337 125.1 55.6803 126.827 58.9248 127.922C62.1694 129.014 65.5426 129.56 69.0445 129.56C72.6911 129.56 76.1367 128.923 79.3793 127.649C82.6238 126.374 85.4704 124.481 87.9108 121.966C90.3533 119.454 92.2851 116.344 93.7084 112.628C95.1317 108.915 95.8433 104.652 95.8433 99.8456V7.20754C95.8433 5.89697 96.2956 4.76531 97.2063 3.82459C98.1169 2.87584 99.3351 2.40146 100.863 2.40146H132.738C134.412 2.40146 135.721 2.88992 136.668 3.87284C137.613 4.85576 138.089 5.96934 138.089 7.20352V99.2164C138.089 111.95 136.211 122.65 132.466 131.307C128.717 139.969 123.677 146.933 117.347 152.208C111.017 157.486 103.683 161.269 95.3508 163.563C87.0183 165.852 78.2676 167 69.0988 167C59.928 167 51.1572 165.816 42.7905 163.45C34.4197 161.09 27.0722 157.229 20.7399 151.88C14.4076 146.535 9.36983 139.546 5.6227 130.925C1.87155 122.304 0 111.735 0 99.2164V7.20352C0 5.96934 0.416123 4.85576 1.25239 3.87284C2.08464 2.88992 3.11993 2.40146 4.35423 2.40146H37.019C38.1065 2.40146 39.2504 2.85373 40.4485 3.7663C41.6446 4.67686 42.2457 5.82461 42.2457 7.20754V99.8456Z" fill="#616161"/>
<path d="M523.31 55.2298C523.31 53.0448 522.928 50.8639 522.164 48.681C521.4 46.496 520.289 44.5523 518.835 42.8438C517.378 41.1332 515.615 39.7281 513.54 38.6367C511.465 37.5472 509.12 36.9985 506.498 36.9985H483.358V73.4551H506.498C509.12 73.4551 511.484 72.9305 513.594 71.8752C515.705 70.8219 517.47 69.4571 518.889 67.7827C520.307 66.1083 521.4 64.1786 522.164 61.9977C522.928 59.8127 523.31 57.5595 523.31 55.2298ZM441.112 7.42232C441.112 5.89266 441.512 4.67657 442.312 3.76601C443.113 2.85344 444.313 2.40117 445.915 2.40117H515.669C520.691 2.40117 525.419 3.09263 529.859 4.47355C534.298 5.85648 538.373 7.76806 542.086 10.2063C545.797 12.6425 549.144 15.5551 552.129 18.934C555.11 22.3189 557.639 25.9773 559.714 29.909C561.788 33.8346 563.372 37.9693 564.462 42.295C565.556 46.6267 566.1 51.0107 566.1 55.4489C566.1 61.9977 564.916 68.4018 562.552 74.6591C560.188 80.9144 556.821 86.4844 552.457 91.3588C548.088 96.2332 542.848 100.183 536.737 103.202C530.623 106.223 523.855 107.767 516.433 107.839H483.358V159.792C483.358 162.925 481.681 164.487 478.336 164.487H445.915C444.459 164.487 443.295 164.105 442.423 163.341C441.549 162.58 441.112 161.394 441.112 159.792V7.42232Z" fill="#616161"/>
<path d="M757.129 14.191C758.365 14.9186 759.274 15.8654 759.859 17.0272C760.44 18.189 760.331 19.576 759.531 21.174L741.083 47.3712C740.281 48.6094 739.427 49.319 738.518 49.4979C737.607 49.6828 736.498 49.3732 735.189 48.5692C731.621 45.8817 727.691 43.8073 723.399 42.348C719.105 40.8948 714.558 40.1671 709.753 40.1671C703.787 40.1671 698.293 41.2948 693.271 43.5521C688.249 45.8054 683.919 48.8968 680.283 52.8285C676.642 56.7562 673.803 61.3432 671.767 66.5794C669.729 71.8217 668.709 77.4237 668.709 83.3876C668.709 89.3575 669.729 94.9435 671.767 100.146C673.803 105.348 676.642 109.894 680.283 113.79C683.919 117.681 688.249 120.755 693.271 123.012C698.293 125.265 703.787 126.397 709.753 126.397C714.558 126.397 719.143 125.647 723.507 124.158C727.876 122.666 731.842 120.576 735.406 117.882C736.717 117.08 737.808 116.753 738.681 116.899C739.555 117.044 740.428 117.699 741.3 118.861L759.967 145.714C760.767 147.316 760.876 148.663 760.295 149.752C759.712 150.844 758.803 151.754 757.567 152.482C750.724 157.063 743.357 160.614 735.46 163.123C727.564 165.636 719.252 166.888 710.519 166.888C702.804 166.888 695.4 165.905 688.306 163.943C681.209 161.977 674.567 159.177 668.382 155.537C662.196 151.897 656.574 147.553 651.518 142.496C646.458 137.436 642.112 131.836 638.471 125.683C634.833 119.539 632.032 112.916 630.066 105.82C628.102 98.7224 627.119 91.3234 627.119 83.6067C627.119 75.8981 628.102 68.491 630.066 61.3955C632.032 54.2999 634.833 47.6446 638.471 41.4194C642.112 35.2002 646.458 29.5439 651.518 24.4504C656.574 19.3569 662.196 15.0071 668.382 11.403C674.567 7.80501 681.209 5.00498 688.306 3.00295C695.4 1.00092 702.804 -8.36962e-05 710.519 -8.36962e-05C719.252 -8.36962e-05 727.492 1.22003 735.243 3.65824C742.993 6.09444 750.288 9.60402 757.129 14.191Z" fill="#616161"/>
<path d="M288.276 73.2666L221.111 139.502C223.441 142.708 225.964 145.764 228.716 148.632C233.754 153.882 239.35 158.393 245.51 162.172C246.326 162.672 247.172 163.119 248.005 163.589L278.963 131.297L288.276 121.583L297.274 130.968L327.977 162.994C328.457 162.715 328.954 162.463 329.428 162.172C335.59 158.393 341.204 153.882 346.278 148.632C349.314 145.49 352.05 142.121 354.553 138.574L288.276 73.2666Z" fill="#EC6E22"/>
<path d="M899.25 52.4732C897.865 56.1858 896.466 60.1878 895.047 64.4793C893.628 68.7728 892.226 73.1045 890.843 77.4664C889.46 81.8343 888.061 86.1479 886.642 90.4012C885.221 94.6605 883.821 98.6465 882.438 102.353H915.952L899.25 52.4732ZM879.383 5.7572C879.453 5.32102 879.692 4.85066 880.09 4.33809C880.49 3.83156 880.983 3.35517 881.566 2.92099C882.147 2.48481 882.766 2.13908 883.421 1.8838C884.077 1.62852 884.694 1.50188 885.277 1.50188H913.224C914.46 1.50188 915.515 1.88379 916.388 2.64762C917.26 3.40943 917.916 4.0828 918.354 4.66572L921.082 10.8869L978.39 158.679C978.973 160.132 978.863 161.312 978.063 162.223C977.263 163.136 975.879 163.588 973.913 163.588H942.586C940.911 163.588 939.62 163.278 938.712 162.659C937.799 162.044 937.089 161.007 936.581 159.55C935.125 155.837 933.706 152.148 932.325 148.472C930.942 144.798 929.559 141.103 928.176 137.391H870.212C868.829 141.103 867.43 144.798 866.011 148.472C864.589 152.148 863.19 155.837 861.807 159.55C860.86 162.241 859.005 163.588 856.239 163.588H824.038C822.655 163.588 821.507 163.224 820.599 162.498C819.69 161.771 819.525 160.679 820.11 159.222L879.383 5.7572Z" fill="#616161"/>
<path d="M367.638 64.4402C365.646 57.0753 362.854 50.1647 359.267 43.7023C355.681 37.246 351.351 31.3746 346.279 26.0861C341.205 20.7976 335.591 16.283 329.429 12.5423C323.268 8.80554 316.638 5.89697 309.536 3.82057C302.433 1.74216 295.078 0.702949 287.471 0.702949C279.788 0.702949 272.416 1.74216 265.348 3.82057C258.282 5.89697 251.668 8.80554 245.509 12.5423C239.349 16.283 233.753 20.7976 228.717 26.0861C223.679 31.3746 219.347 37.246 215.727 43.7023C212.102 50.1647 209.312 57.0753 207.356 64.4402C205.4 71.8071 204.423 79.4936 204.423 87.4997C204.423 95.5078 205.4 103.19 207.356 110.557C209.312 117.924 212.102 124.801 215.727 131.179C217.367 134.075 219.176 136.839 221.112 139.502L252.621 108.429C247.65 101.466 244.715 92.951 244.715 83.7449C244.715 60.2492 263.764 41.2038 287.26 41.2038C310.758 41.2038 329.805 60.2492 329.805 83.7449C329.805 92.4244 327.2 100.493 322.735 107.223L354.551 138.574C356.234 136.194 357.828 133.743 359.267 131.179C362.854 124.801 365.646 117.924 367.638 110.557C369.63 103.19 370.627 95.5078 370.627 87.4997C370.627 79.4936 369.63 71.8071 367.638 64.4402Z" fill="#616161"/>
</svg>
